<?xml version="1.0" encoding="utf-8"?>
<!-- Generator: Adobe Illustrator 23.0.2, SVG Export Plug-In . SVG Version: 6.00 Build 0)  -->
<svg version="1.1" id="Layer_1" xmlns="http://www.w3.org/2000/svg" xmlns:xlink="http://www.w3.org/1999/xlink" x="0px" y="0px"
	 viewBox="0 0 187 110" style="enable-background:new 0 0 187 110;" xml:space="preserve">
<style type="text/css">
	.st0{fill:#FFFFFF;}
</style>
<path class="st0" d="M101.6,20.1c6.4,12.2,18.2,29.2,25.9,42.4c13.3-12,27.6-23.7,39.9-35.2l0.2,0.2c-1.2-1.8-1.9-3.9-1.9-6.2
	c0-6.2,5-11.1,11.1-11.1c6.2,0,11.1,5,11.1,11.1s-5,11.1-11.1,11.1c-1,0-2-0.1-3-0.4l0.3,0.4c-6.1,20.6-11.8,48.4-17.2,69.3
	c-1.6,6.2-4.5,8.3-10.9,8.3c-33-0.2-68.7-0.3-101.7,0.1c-7,0.1-9.6-2.9-11.3-9.2c-5.3-20.6-12.4-48.1-17.8-68.7l0-0.1
	c-0.8,0.2-1.6,0.3-2.5,0.3c-6.2,0-11.1-5-11.1-11.1s5-11.1,11.1-11.1c6.2,0,11.1,5,11.1,11.1c0,2.3-0.7,4.5-1.9,6.2l0.4,0.4
	c10.8,10.5,28.3,23.9,40.3,34.6c8.1-14.1,18-28.7,25.3-42.2l-0.1-0.2c-2.7-2-4.4-5.3-4.4-8.9c0-6.2,5-11.1,11.1-11.1
	c6.2,0,11.1,5,11.1,11.1c0,3.4-1.5,6.5-4,8.5L101.6,20.1z"/>
</svg>
