<?xml version="1.0" encoding="utf-8"?>
<!-- Generator: Adobe Illustrator 23.0.2, SVG Export Plug-In . SVG Version: 6.00 Build 0)  -->
<svg version="1.1" id="Layer_1" xmlns="http://www.w3.org/2000/svg" xmlns:xlink="http://www.w3.org/1999/xlink" x="0px" y="0px"
	 viewBox="0 0 900 300" style="enable-background:new 0 0 900 300;" xml:space="preserve">
<style type="text/css">
	.st0{fill:#FFFFFF;}
</style>
<g>
	<path class="st0" d="M33.7,121.8c0,0,14.7-17.3,36.4-20.8l16-26.8C86.1,74.2,47.3,85.2,33.7,121.8z"/>
	<path class="st0" d="M78.5,104.3c0,0,45-32,80.3,3.5h9.7C168.4,107.8,122.3,24.9,78.5,104.3z"/>
	<path class="st0" d="M140.5,137c0,0-2.4-23-14.7-32.7c0,0-40.1-3.7-59,30.3C66.8,134.6,87.9,114,140.5,137z"/>
	<path class="st0" d="M155.7,79.2c0,0,17.3,14.7,20.8,36.4l26.8,16C203.3,131.6,192.3,92.8,155.7,79.2z"/>
	<path class="st0" d="M173.2,123.9c0,0,32,45-3.5,80.3v9.7C169.7,213.9,252.6,167.8,173.2,123.9z"/>
	<path class="st0" d="M140.5,186c0,0,23-2.4,32.7-14.7c0,0,3.7-40.1-30.3-59C142.9,112.3,163.6,133.4,140.5,186z"/>
	<path class="st0" d="M198.9,198.9c0,0-14.7,17.3-36.4,20.8l-16,26.8C146.4,246.5,185.3,235.5,198.9,198.9z"/>
	<path class="st0" d="M154.1,216.4c0,0-45,32-80.3-3.5h-9.7C64.2,212.9,110.2,295.8,154.1,216.4z"/>
	<path class="st0" d="M92,183.7c0,0,2.4,23,14.7,32.7c0,0,40.1,3.7,59-30.3C165.7,186.2,144.7,206.8,92,183.7z"/>
	<path class="st0" d="M78.3,242.5c0,0-17.3-14.7-20.8-36.4l-26.8-16C30.7,190.1,41.7,228.9,78.3,242.5z"/>
	<path class="st0" d="M60.8,197.7c0,0-32-45,3.5-80.3v-9.7C64.3,107.8-18.6,153.9,60.8,197.7z"/>
	<path class="st0" d="M93.5,135.7c0,0-23,2.4-32.7,14.7c0,0-3.7,40.1,30.3,59C91,209.4,70.4,188.3,93.5,135.7z"/>
	<path class="st0" d="M103.7,138.9c0,0,2.9-3.5,7.5-2c4.6,1.6,28.3,9.9,29.4,13.4c1.1,3.5-10.5,34.9-15.1,33.3
		c-4.6-1.5-35.3-8.1-32-16.5C96.7,158.9,103.7,138.9,103.7,138.9z"/>
</g>
<image style="display:none;overflow:visible;" width="185" height="101" xlink:href="C:\Users\suppapornpong.p\Desktop\chame-logo-footer.png"  transform="matrix(3.3699 0 0 3.3699 100.5037 -404.7479)">
</image>
<polygon class="st0" points="647.9,103.4 647.9,216.7 660.2,216.7 660.2,135.6 694.4,216.7 702.5,216.7 739.8,134.6 739.8,216.7 
	762.8,216.7 762.8,103.4 740.8,103.4 705.4,185.6 666.8,103.4 "/>
<polygon class="st0" points="802.6,103.4 802.6,216.7 872.2,216.7 872.2,205.6 825.6,205.6 825.6,162.2 854.7,162.2 854.7,151.4 
	825.1,151.4 825.1,113.1 872.2,113.1 872.2,103.4 "/>
<path class="st0" d="M563.1,103.4l49.5,113.3h-24.8L571.3,177h-33.2l-14.8,39.8h-14.8l48-113.3H563.1z M544.3,166.8h23.5l-13.3-31.1
	L544.3,166.8z"/>
<polygon class="st0" points="451.8,103.4 451.8,151.2 400.8,151.2 400.8,103.4 379.8,103.4 379.8,216.7 400.8,216.7 400.8,162.2 
	451.8,162.2 451.8,216.7 474.3,216.7 474.3,103.4 "/>
<polygon class="st0" points="854.2,61.6 843,89.1 854.2,89.1 872.2,61.6 "/>
<g>
	<path class="st0" d="M342,198.9c-4.9,1.9-19.1,13-24.1,14.6c-10.1,3.2-11.2,3.2-16.6,3.2c-17,0-29.4-6.5-38.6-15.7
		c-9.2-9.2-13.8-22.7-13.8-40.5c0-8.5,1.3-16.3,4-23.2c2.6-6.9,6.4-12.9,11.2-17.8c4.8-4.9,10.5-8.8,17.2-11.4s14-4,22-4
		c5.6,0,11.6,1.3,16.3,3c16.2,5.8,18,12.8,22.5,14.6l-9.1,5.3c-3.9-3.4-2.1-3.5-8.8-6.9c-3.7-1.9-11.7-4.3-16.9-4.3
		c-4.8,0-11.1,0-15.3,1.8c-4.3,1.8-10.9,7.1-13.8,12.5c-2.2,4.2-3,8.3-4.9,13.3c-1.9,4.9-2,10.6-2,16.8c0,13,3.1,26.2,9.4,32.7
		c6.3,6.5,14,10.5,25.3,10.5c5.1,0,10-2.2,14.8-3.3c4.8-1.1,9.7-5.6,13-9.7L342,198.9z"/>
</g>
</svg>
